<svg xmlns="http://www.w3.org/2000/svg" viewBox="0 0 110 110">
  <path fill="currentColor" d="M54.3 0C26.6 0 28.2 11.9 28.2 11.9l.1 12.3h26.6v3.7H17.6S0 25.5 0 53.8c0 28.4 15.4 27.4 15.4 27.4h9.2V68.6s-.5-15.4 15.1-15.4h26c14.3 0 15.7-11.5 15.7-11.5V15.7S83.5 0 54.3 0zM39.3 9.1c2.7 0 4.8 2.2 4.8 4.8s-2.2 4.8-4.8 4.8-4.8-2.2-4.8-4.8 2.1-4.8 4.8-4.8z"/>
  <path fill="currentColor" d="M55.7 110c27.7 0 26.1-11.9 26.1-11.9l-.1-12.3H55.1v-3.7h37.3S110 84.5 110 56.2c0-28.4-15.4-27.4-15.4-27.4h-9.2v12.6s.5 15.4-15.1 15.4h-26C30 56.8 28.6 68.3 28.6 68.3v25.9S26.5 110 55.7 110zm15-9.1c-2.7 0-4.8-2.2-4.8-4.8s2.2-4.8 4.8-4.8 4.8 2.2 4.8 4.8-2.1 4.8-4.8 4.8z"/>
</svg>
