<svg xmlns="http://www.w3.org/2000/svg" fill="none" viewBox="0 0 98 40"><g fill="#273747" clip-path="url(#a)"><path d="M0 9.87h2.42V30.7h12.8v2.1H0zm30.9 7.26q1.8 1.68 1.8 5V32.8h-2.22v-2.69q-.78 1.35-2.3 2.1t-3.61.75q-2.88 0-4.58-1.37t-1.7-3.64q0-2.2 1.59-3.53t5.04-1.35h5.46v-1.05q0-2.22-1.24-3.39t-3.63-1.16a9 9 0 0 0-3.13.54q-1.5.54-2.59 1.5l-1.04-1.74q1.3-1.12 3.13-1.72a12 12 0 0 1 3.86-.6q3.37 0 5.17 1.68m-2.6 13.1q1.4-.9 2.08-2.6V24.8H25q-4.4 0-4.4 3.08 0 1.5 1.14 2.37t3.2.87q1.96 0 3.36-.9Zm12.23 2.13q-1.91-.6-3-1.52L38.59 29q1.08.85 2.72 1.4t3.4.53q2.35 0 3.47-.73 1.13-.74 1.13-2.08 0-.95-.62-1.5-.62-.53-1.57-.81t-2.51-.54q-2.1-.4-3.37-.8a5 5 0 0 1-2.17-1.4q-.9-.98-.9-2.72 0-2.16 1.8-3.54t5-1.37q1.66 0 3.33.44 1.66.45 2.74 1.16l-1.01 1.87q-2.13-1.47-5.06-1.47-2.23 0-3.35.78-1.13.79-1.13 2.07 0 .98.64 1.57.63.59 1.58.87t2.61.57q2.06.4 3.3.79a5 5 0 0 1 2.13 1.34q.88.95.88 2.62 0 2.26-1.88 3.59-1.88 1.32-5.21 1.32a13 13 0 0 1-4-.6m25.33-.6q-.65.58-1.61.9a7 7 0 0 1-2.01.3q-2.42 0-3.73-1.3c-1.3-1.32-1.3-2.11-1.3-3.7V17.53h-3.07v-1.97h3.07V11.8h2.32v3.77h5.22v1.97h-5.22v10.28q0 1.54.76 2.34t2.2.8a4 4 0 0 0 1.4-.23 4 4 0 0 0 1.16-.65l.81 1.67"/><path fill-rule="evenodd" d="m97.9 21.96-1.99-.2a18 18 0 0 0 0-3.53l2-.2a20 20 0 0 1 0 3.93m-.77-7.77-1.91.58a18 18 0 0 0-1.35-3.25l1.76-.95a20 20 0 0 1 1.5 3.62m-3.68-6.88-1.54 1.27a18 18 0 0 0-2.5-2.5l1.27-1.54a20 20 0 0 1 2.77 2.77m-6.03-4.95-.94 1.76a18 18 0 0 0-3.26-1.35L83.8.86q1.9.58 3.62 1.5M79.96.1l-.2 1.99a18 18 0 0 0-3.53 0l-.2-2a20 20 0 0 1 3.93 0m-7.77.77.58 1.91a18 18 0 0 0-3.26 1.35l-.94-1.76a20 20 0 0 1 3.62-1.5m-6.88 3.68 1.27 1.54a18 18 0 0 0-2.5 2.5l-1.54-1.27a20 20 0 0 1 2.77-2.77m3.26 33.1.94-1.76q1.55.83 3.26 1.35l-.58 1.91a20 20 0 0 1-3.62-1.5m7.47 2.27.2-2a18 18 0 0 0 3.53 0l.19 2a20 20 0 0 1-3.92 0m7.77-.77-.58-1.91a18 18 0 0 0 3.25-1.35l.95 1.76a20 20 0 0 1-3.62 1.5m6.88-3.68-1.27-1.54a18 18 0 0 0 2.5-2.5l1.54 1.27a20 20 0 0 1-2.77 2.77m4.95-6.03-1.76-.94a18 18 0 0 0 1.35-3.26l1.91.58a20 20 0 0 1-1.5 3.62" clip-rule="evenodd"/><path d="M70 16.12c0 4.55 3.13 7.7 7.54 7.7q1-.01 1.87-.26L73.64 32h5.06l5.52-8.12c2.05-3.02 3.04-5.37 3.06-7.87.01-5.09-4-8.01-8.73-8.01C73.58 8 70 11.25 70 16.12m4.84-.18c0-2.34 1.54-4.03 3.74-4.03s3.77 1.69 3.77 4.06c0 2.34-1.56 4-3.77 4s-3.74-1.66-3.74-4.03"/></g><defs><clipPath id="a"><path fill="#fff" d="M0 0h98v40H0z"/></clipPath></defs></svg>